# xmcd
#
# Track frame offsets:
#	150
#	25337
#	44801
#	60923
#	80838
#	101582
#	121557
#	135444
#	154263
#	172285
#	193260
#	208564
#	218836
#	234171
#	247980
#
# Disc length: 3640 seconds
#
# Revision: 0
# Processed by: cddbd v1.5.1PL2 Copyright (c) Steve Scherf et al.
# Submitted via: EasyCDDAExtractor 8.2.1.1
#
DISCID=cf0e360f
DTITLE=Long John Baldry - It Still Ain't Easy
DYEAR=1993
DGENRE=Blues
TTITLE0=It Still Ain't Easy
TTITLE1=Midnight In New Orleans
TTITLE2=One Step Ahead
TTITLE3=I Never Loved Nobody
TTITLE4=Get It While The Gettin's Good
TTITLE5=What've I Been Drinking
TTITLE6=Insane Asylum
TTITLE7=You Wanna Dance
TTITLE8=Shake That Thing
TTITLE9=Like You Promised
TTITLE10=Busker
TTITLE11=Can't Keep from Crying
TTITLE12=No More
TTITLE13=Soft and Furry
TTITLE14=It Still Ain't Easy
EXTD=
EXTT0=
EXTT1=
EXTT2=
EXTT3=
EXTT4=
EXTT5=
EXTT6=
EXTT7=
EXTT8=
EXTT9=
EXTT10=
EXTT11=
EXTT12=
EXTT13=
EXTT14=
PLAYORDER=
